<svg id="Layer_1" xmlns="http://www.w3.org/2000/svg" width="111" height="19"><style>.st0{fill:#fff}</style><g id="iPhone_X_S_1_"><path class="st0" d="M.02 2.36C.02 1.54.68.9 1.49.9c.82 0 1.48.64 1.48 1.46 0 .8-.66 1.45-1.48 1.45-.81 0-1.47-.65-1.47-1.45zm.2 3.26h2.54v12.37H.22V5.62zm11.83-4.6c3.29 0 5.59 2.27 5.59 5.57 0 3.32-2.34 5.6-5.67 5.6H8.32v5.8H5.69V1.02h6.36zM8.32 9.98h3.02c2.29 0 3.6-1.23 3.6-3.37s-1.31-3.36-3.59-3.36H8.32v6.73zm11.12-8.96h2.52v6.7h.06c.74-1.48 2.02-2.25 3.92-2.25 2.72 0 4.34 1.81 4.34 4.61v7.9h-2.55v-7.4c0-1.82-.92-2.93-2.7-2.93-1.88 0-3.03 1.29-3.03 3.26v7.07h-2.54V1.02zM32.09 11.8c0-3.89 2.29-6.34 5.87-6.34 3.59 0 5.87 2.45 5.87 6.34 0 3.9-2.27 6.34-5.87 6.34s-5.87-2.43-5.87-6.34zm9.15 0c0-2.67-1.22-4.24-3.28-4.24-2.06 0-3.28 1.59-3.28 4.24 0 2.68 1.22 4.24 3.28 4.24 2.06.01 3.28-1.55 3.28-4.24zm4.41-6.18h2.42v2.1h.06c.74-1.48 1.99-2.25 3.89-2.25 2.73 0 4.29 1.75 4.29 4.59v7.93h-2.55v-7.43c0-1.86-.86-2.89-2.65-2.89-1.82 0-2.93 1.29-2.93 3.2V18h-2.54l.01-12.38zm23.65 8.74c-.34 2.25-2.53 3.79-5.33 3.79-3.6 0-5.83-2.41-5.83-6.28 0-3.88 2.25-6.4 5.73-6.4 3.42 0 5.57 2.35 5.57 6.1v.87H60.7v.15c0 2.12 1.33 3.5 3.33 3.5 1.41 0 2.52-.67 2.86-1.74l2.41.01zm-8.59-3.7h6.19c-.06-1.89-1.27-3.14-3.03-3.14-1.76 0-3.03 1.27-3.16 3.14zm18.85-1.17v-.08l-5.57-8.38h3.14l4.19 6.56h.09l4.23-6.56h2.98L82.87 9.5v.07l5.64 8.42h-3.08l-4.22-6.47h-.08l-4.28 6.47h-2.92l5.63-8.5zM110.2 5c-.13-2.55-1.72-4.1-4.25-4.25L105 .7h-7l-.95.05C94.56.86 92.96 2.4 92.8 5l-.05.96v6.98l.05.96c.2 2.64 1.8 4.18 4.25 4.25l.95.05h7l.95-.05c2.5-.12 4.09-1.66 4.25-4.25l.05-.96V5.96L110.2 5zm-1.55 8.84c-.01 1.69-1.16 2.72-2.76 2.76l-.9.05h-6.98l-.9-.05c-1.62-.05-2.76-1.09-2.76-2.76l-.05-.89v-7l.05-.89c0-1.67 1.14-2.71 2.76-2.76l.9-.05h6.98l.9.05c1.62.05 2.76 1.09 2.76 2.76l.05.89v7l-.05.89z"/><path class="st0" d="M99.52 11.43c.12.83.92 1.32 2.04 1.32 1.08 0 1.83-.53 1.83-1.28 0-.65-.45-1.04-1.61-1.28l-.96-.2c-1.79-.37-2.63-1.21-2.63-2.52 0-1.58 1.38-2.64 3.33-2.64 1.98 0 3.29 1.08 3.33 2.68h-1.53c-.07-.84-.78-1.35-1.81-1.35-.99 0-1.7.47-1.7 1.22 0 .61.45 1 1.56 1.23l.97.2c1.89.39 2.67 1.15 2.67 2.48 0 1.71-1.35 2.79-3.5 2.79-2.07 0-3.44-1.01-3.52-2.65h1.53z"/><path id="BOUNDS_1_" fill="none" d="M0 0h111v19H0z"/></g></svg>