<svg xmlns="http://www.w3.org/2000/svg" width="74" height="74"><path d="M41 59h-8c-.55 0-1-.45-1-1v-3.77c-1.24-.35-2.19-.8-3.1-1.31l-2.77 2.8a1 1 0 0 1-.71.3c-.27 0-.52-.11-.71-.29l-5.9-5.91a1 1 0 0 1-.02-1.39l2.85-3.03c-.58-1.08-1.01-2.18-1.33-3.38H16c-.55 0-1-.45-1-1v-8c0-.55.45-1 1-1h4.31c.32-1.2.76-2.31 1.33-3.39l-2.85-3.02a1 1 0 0 1 .02-1.39l5.9-5.91a1 1 0 0 1 1.42.01l2.77 2.8c.91-.51 1.86-.96 3.1-1.31V16c0-.55.45-1 1-1h8c.55 0 1 .45 1 1v3.77c1.24.35 2.19.8 3.1 1.31l2.77-2.8a1 1 0 0 1 .71-.3c.27 0 .52.11.71.29l5.9 5.91a1 1 0 0 1 .02 1.39l-2.85 3.02c.58 1.08 1.01 2.18 1.33 3.39H58c.55 0 1 .45 1 1v8c0 .55-.45 1-1 1h-4.31c-.32 1.21-.76 2.31-1.33 3.38l2.85 3.03a1 1 0 0 1-.02 1.39l-5.9 5.91a1 1 0 0 1-1.42-.01l-2.77-2.8c-.91.51-1.86.96-3.1 1.31V58c0 .55-.45 1-1 1zm-7-2h6v-3.55c0-.47.33-.88.79-.98 1.71-.38 2.76-.95 3.97-1.67a1 1 0 0 1 1.22.16l2.61 2.63 4.5-4.52-2.69-2.85a.981.981 0 0 1-.13-1.19c.79-1.33 1.32-2.68 1.66-4.24.1-.46.51-.78.98-.78H57v-6h-4.1c-.47 0-.88-.33-.98-.78-.35-1.56-.88-2.91-1.66-4.24a.996.996 0 0 1 .13-1.19l2.69-2.85-4.5-4.52-2.61 2.63a1 1 0 0 1-1.22.16c-1.21-.71-2.27-1.29-3.97-1.67-.46-.1-.79-.51-.79-.98V17h-6v3.55c0 .47-.33.88-.79.98-1.7.38-2.76.95-3.97 1.67a1 1 0 0 1-1.22-.16l-2.61-2.63-4.5 4.52 2.69 2.85c.31.32.36.81.13 1.19-.79 1.33-1.32 2.68-1.66 4.24-.09.46-.5.79-.96.79H17v6h4.1c.47 0 .88.33.98.78.35 1.56.88 2.91 1.66 4.24.23.38.17.87-.13 1.19l-2.69 2.85 4.5 4.52 2.61-2.63a1 1 0 0 1 1.22-.16c1.21.71 2.27 1.29 3.97 1.67.46.1.79.51.79.98V57zm3-11.85c-4.57 0-8.15-3.58-8.15-8.15s3.58-8.15 8.15-8.15 8.15 3.58 8.15 8.15-3.58 8.15-8.15 8.15zm0-14.3c-3.51 0-6.15 2.64-6.15 6.15 0 3.51 2.64 6.15 6.15 6.15s6.15-2.64 6.15-6.15c0-3.51-2.64-6.15-6.15-6.15z" fill="#999"/></svg>