<svg xmlns="http://www.w3.org/2000/svg" width="74" height="74"><path d="M57.94 55.76c-2.37 0-5.64-.65-8.72-3.45-.74.06-2.22.17-3.31.17-7.31 0-13.66-3.81-15.34-8.77A22.92 22.92 0 0 1 25.9 43c-5.56 5.75-11.59 3.54-12.27 3.27L12 45.61l1.39-1.06c3.39-2.59 4.29-4.34 4.75-5.56-2.55-2.3-3.94-5.2-3.94-8.25 0-7.16 7.85-12.99 17.51-12.99 9.34 0 17.01 5.43 17.53 12.25 7.06 1.11 12.37 5.67 12.37 11.11 0 2.72-1.56 5.43-4.41 7.69.46 1.01 1.42 2.46 4.41 4.75l1.49 1.14-1.78.6c-.12.04-1.45.47-3.38.47zm-7.99-5.53l.33.32c3.02 2.93 6.33 3.31 8.39 3.18-2.45-2.16-3.14-3.62-3.63-4.93l-.26-.71.62-.44c2.67-1.93 4.2-4.31 4.2-6.54 0-5.07-6.27-9.36-13.7-9.36-7.47 0-13.78 4.29-13.78 9.36 0 5.08 6.31 9.37 13.78 9.37 1.4 0 3.56-.2 3.58-.2l.47-.05zm-33.8-5.36c2.04.28 5.41-.02 8.68-3.66l.42-.47.6.17c1.39.4 2.83.66 4.29.76-.01-.19-.02-.38-.02-.58 0-6.16 7.23-11.36 15.78-11.36.44 0 .87.01 1.29.04-.69-5.61-7.38-10.03-15.5-10.03-8.55 0-15.51 4.93-15.51 10.99 0 2.64 1.33 5.19 3.75 7.16l.55.45-.31.86c-.4 1.19-1.06 3.06-4.02 5.67z" fill="#999"/></svg>