<svg xmlns="http://www.w3.org/2000/svg" width="74" height="74"><path d="M37 58.5c-11.85 0-21.5-9.65-21.5-21.5S25.15 15.5 37 15.5 58.5 25.15 58.5 37 48.85 58.5 37 58.5zm0-41c-10.75 0-19.5 8.75-19.5 19.5S26.25 56.5 37 56.5 56.5 47.75 56.5 37 47.75 17.5 37 17.5z" fill="#999"/><path d="M36.05 48.6v-1.83c-3.69-.27-6.12-2.39-6.14-5.44h2.34c.15 1.83 1.54 3.05 3.8 3.32v-7.11l-1.09-.3c-2.93-.77-4.57-2.56-4.57-5.1 0-2.99 2.17-5.03 5.66-5.37v-1.91h1.83v1.9c3.42.29 5.66 2.41 5.76 5.36h-2.32c-.05-1.7-1.41-2.99-3.43-3.24v6.69l1.16.29c3.34.89 4.94 2.54 4.94 5.3 0 3.24-2.26 5.29-6.1 5.61v1.85h-1.84zm0-13.44v-6.29c-1.91.11-3.31 1.41-3.31 3.13 0 1.63 1.15 2.71 3.31 3.16zm1.83 2.75v6.78c2.38-.12 3.73-1.35 3.73-3.35 0-1.8-1.15-2.88-3.73-3.43z" fill="#999"/></svg>